<mxfile host="app.diagrams.net" modified="2023-07-20T10:43:12.132Z" agent="Mozilla/5.0 (Macintosh; Intel Mac OS X 10_15_7) AppleWebKit/537.36 (KHTML, like Gecko) Chrome/113.0.0.0 Safari/537.36 Edg/113.0.1774.57" etag="jemBhhn-xfMZWHiutenI" version="21.6.2" type="device">
  <diagram name="第 1 页" id="vYGmFmP2Lva24OXTDVVa">
    <mxGraphModel dx="711" dy="395" grid="1" gridSize="10" guides="1" tooltips="1" connect="1" arrows="1" fold="1" page="1" pageScale="1" pageWidth="827" pageHeight="1169" math="0" shadow="0">
      <root>
        <mxCell id="0" />
        <mxCell id="1" parent="0" />
        <mxCell id="W96TtfsmjG_kAXLoIAcG-10" value="&lt;font style=&quot;font-size: 10px;&quot;&gt;weights/SIGINT&lt;/font&gt;" style="text;html=1;align=center;verticalAlign=middle;resizable=0;points=[];autosize=1;strokeColor=none;fillColor=none;" vertex="1" parent="1">
          <mxGeometry x="498" y="197" width="90" height="30" as="geometry" />
        </mxCell>
        <mxCell id="W96TtfsmjG_kAXLoIAcG-3" value="&lt;p style=&quot;line-height: 100%;&quot;&gt;&lt;font style=&quot;font-size: 10px;&quot;&gt;weights &amp;amp; &lt;br&gt;&lt;font style=&quot;font-size: 10px;&quot;&gt;accuracy&lt;/font&gt;&lt;/font&gt;&lt;/p&gt;" style="text;html=1;align=center;verticalAlign=middle;resizable=0;points=[];autosize=1;strokeColor=none;fillColor=none;" vertex="1" parent="1">
          <mxGeometry x="438" y="193" width="70" height="60" as="geometry" />
        </mxCell>
        <mxCell id="W96TtfsmjG_kAXLoIAcG-2" value="&lt;p style=&quot;line-height: 110%;&quot;&gt;&lt;font style=&quot;font-size: 10px;&quot;&gt;SIGINT&lt;br style=&quot;font-size: 10px;&quot;&gt;&lt;/font&gt;&lt;/p&gt;" style="text;html=1;align=center;verticalAlign=middle;resizable=0;points=[];autosize=1;strokeColor=none;fillColor=none;fontSize=10;" vertex="1" parent="1">
          <mxGeometry x="367.5" y="211" width="60" height="40" as="geometry" />
        </mxCell>
        <mxCell id="PV-bu-QnKwdIhHbQrde8-3" value="&lt;p style=&quot;line-height: 100%;&quot;&gt;&lt;font style=&quot;font-size: 10px;&quot;&gt;dying&lt;br style=&quot;font-size: 10px;&quot;&gt;request&lt;br style=&quot;font-size: 10px;&quot;&gt;&lt;/font&gt;&lt;/p&gt;" style="text;html=1;align=center;verticalAlign=middle;resizable=0;points=[];autosize=1;strokeColor=none;fillColor=none;fontSize=10;" parent="1" vertex="1">
          <mxGeometry x="407" y="177" width="60" height="50" as="geometry" />
        </mxCell>
        <mxCell id="0ty1MtPIsn8DT-ruyWdK-3" value="AWS Elastic Container Registry" style="rounded=1;whiteSpace=wrap;html=1;fillColor=#ffcc99;strokeColor=#36393d;arcSize=34;" parent="1" vertex="1">
          <mxGeometry x="600" y="169" width="110" height="40" as="geometry" />
        </mxCell>
        <mxCell id="0ty1MtPIsn8DT-ruyWdK-4" value="AWS S3" style="shape=cylinder3;whiteSpace=wrap;html=1;boundedLbl=1;backgroundOutline=1;size=7.692307692307637;fillColor=#ffcc99;strokeColor=#36393d;" parent="1" vertex="1">
          <mxGeometry x="200" y="112" width="54" height="60" as="geometry" />
        </mxCell>
        <mxCell id="0ty1MtPIsn8DT-ruyWdK-6" value="" style="outlineConnect=0;dashed=0;verticalLabelPosition=bottom;verticalAlign=top;align=center;html=1;shape=mxgraph.aws3.lambda_function;fillColor=#F58534;gradientColor=none;" parent="1" vertex="1">
          <mxGeometry x="339" y="109" width="50" height="50" as="geometry" />
        </mxCell>
        <mxCell id="0ty1MtPIsn8DT-ruyWdK-8" value="" style="rounded=0;whiteSpace=wrap;html=1;fillColor=#fff2cc;strokeColor=#d6b656;" parent="1" vertex="1">
          <mxGeometry x="200" y="240" width="80" height="80" as="geometry" />
        </mxCell>
        <mxCell id="0ty1MtPIsn8DT-ruyWdK-1" value="AWS SDK" style="rounded=0;whiteSpace=wrap;html=1;fillColor=#cce5ff;strokeColor=#36393d;" parent="1" vertex="1">
          <mxGeometry x="632" y="225" width="46" height="40" as="geometry" />
        </mxCell>
        <mxCell id="0ty1MtPIsn8DT-ruyWdK-10" value="Developer" style="shape=umlActor;verticalLabelPosition=bottom;verticalAlign=top;html=1;outlineConnect=0;" parent="1" vertex="1">
          <mxGeometry x="150" y="247" width="30" height="60" as="geometry" />
        </mxCell>
        <mxCell id="0ty1MtPIsn8DT-ruyWdK-14" value="&lt;font style=&quot;font-size: 10px;&quot;&gt;module/data&lt;/font&gt;" style="text;html=1;align=center;verticalAlign=middle;resizable=0;points=[];autosize=1;strokeColor=none;fillColor=none;rotation=0;" parent="1" vertex="1">
          <mxGeometry x="216" y="177" width="80" height="30" as="geometry" />
        </mxCell>
        <mxCell id="0ty1MtPIsn8DT-ruyWdK-17" value="Client" style="text;html=1;align=center;verticalAlign=middle;resizable=0;points=[];autosize=1;strokeColor=none;fillColor=none;" parent="1" vertex="1">
          <mxGeometry x="215" y="320" width="50" height="30" as="geometry" />
        </mxCell>
        <mxCell id="0ty1MtPIsn8DT-ruyWdK-23" value="&lt;font style=&quot;font-size: 10px;&quot;&gt;config&lt;/font&gt;" style="text;html=1;align=center;verticalAlign=middle;resizable=0;points=[];autosize=1;strokeColor=none;fillColor=none;" parent="1" vertex="1">
          <mxGeometry x="293" y="254" width="50" height="30" as="geometry" />
        </mxCell>
        <mxCell id="0ty1MtPIsn8DT-ruyWdK-25" value="Config" style="rounded=0;whiteSpace=wrap;html=1;fillColor=#fad9d5;strokeColor=#ae4132;" parent="1" vertex="1">
          <mxGeometry x="205" y="245" width="71" height="37" as="geometry" />
        </mxCell>
        <mxCell id="vOYcjfGLHSD7jjnJ-SRt-3" value="" style="endArrow=blockThin;html=1;rounded=0;exitX=0.2;exitY=0;exitDx=0;exitDy=0;exitPerimeter=0;entryX=0.348;entryY=1.001;entryDx=0;entryDy=0;entryPerimeter=0;endFill=1;" parent="1" source="0ty1MtPIsn8DT-ruyWdK-25" target="0ty1MtPIsn8DT-ruyWdK-4" edge="1">
          <mxGeometry width="50" height="50" relative="1" as="geometry">
            <mxPoint x="219.70999999999998" y="236" as="sourcePoint" />
            <mxPoint x="220" y="171" as="targetPoint" />
          </mxGeometry>
        </mxCell>
        <mxCell id="vOYcjfGLHSD7jjnJ-SRt-5" value="" style="endArrow=blockThin;startArrow=blockThin;html=1;rounded=0;exitX=0.973;exitY=0.444;exitDx=0;exitDy=0;exitPerimeter=0;endFill=1;startFill=1;" parent="1" edge="1">
          <mxGeometry width="50" height="50" relative="1" as="geometry">
            <mxPoint x="254.00200000000004" y="141.32" as="sourcePoint" />
            <mxPoint x="340" y="141" as="targetPoint" />
          </mxGeometry>
        </mxCell>
        <mxCell id="vOYcjfGLHSD7jjnJ-SRt-11" value="" style="html=1;shape=mxgraph.basic.isocube;isoAngle=15;" parent="1" vertex="1">
          <mxGeometry x="270" y="116" width="20" height="20" as="geometry" />
        </mxCell>
        <mxCell id="vOYcjfGLHSD7jjnJ-SRt-12" value="" style="group" parent="1" vertex="1" connectable="0">
          <mxGeometry x="300" y="109" width="28" height="32" as="geometry" />
        </mxCell>
        <mxCell id="vOYcjfGLHSD7jjnJ-SRt-13" value="" style="shape=note;whiteSpace=wrap;html=1;backgroundOutline=1;darkOpacity=0.05;size=9;" parent="vOYcjfGLHSD7jjnJ-SRt-12" vertex="1">
          <mxGeometry width="19.764705882352942" height="24" as="geometry" />
        </mxCell>
        <mxCell id="vOYcjfGLHSD7jjnJ-SRt-14" value="" style="shape=note;whiteSpace=wrap;html=1;backgroundOutline=1;darkOpacity=0.05;size=9;" parent="vOYcjfGLHSD7jjnJ-SRt-12" vertex="1">
          <mxGeometry x="4.117647058823529" y="4" width="19.764705882352942" height="24" as="geometry" />
        </mxCell>
        <mxCell id="vOYcjfGLHSD7jjnJ-SRt-23" value="" style="endArrow=blockThin;html=1;rounded=0;exitX=0.996;exitY=0.406;exitDx=0;exitDy=0;entryX=-0.007;entryY=0.244;entryDx=0;entryDy=0;exitPerimeter=0;endFill=1;entryPerimeter=0;" parent="1" source="0ty1MtPIsn8DT-ruyWdK-25" target="vOYcjfGLHSD7jjnJ-SRt-28" edge="1">
          <mxGeometry width="50" height="50" relative="1" as="geometry">
            <mxPoint x="300" y="300" as="sourcePoint" />
            <mxPoint x="360" y="257" as="targetPoint" />
          </mxGeometry>
        </mxCell>
        <mxCell id="vOYcjfGLHSD7jjnJ-SRt-24" value="Proxy&lt;br&gt;(on AWS EC2)" style="text;html=1;align=center;verticalAlign=middle;resizable=0;points=[];autosize=1;strokeColor=none;fillColor=none;" parent="1" vertex="1">
          <mxGeometry x="382" y="320" width="100" height="40" as="geometry" />
        </mxCell>
        <mxCell id="vOYcjfGLHSD7jjnJ-SRt-25" value="" style="outlineConnect=0;dashed=0;verticalLabelPosition=bottom;verticalAlign=top;align=center;html=1;shape=mxgraph.aws3.lambda_function;fillColor=#F58534;gradientColor=none;" parent="1" vertex="1">
          <mxGeometry x="363" y="109" width="50" height="50" as="geometry" />
        </mxCell>
        <mxCell id="vOYcjfGLHSD7jjnJ-SRt-26" value="" style="outlineConnect=0;dashed=0;verticalLabelPosition=bottom;verticalAlign=top;align=center;html=1;shape=mxgraph.aws3.lambda_function;fillColor=#F58534;gradientColor=none;" parent="1" vertex="1">
          <mxGeometry x="388" y="109" width="50" height="50" as="geometry" />
        </mxCell>
        <mxCell id="vOYcjfGLHSD7jjnJ-SRt-28" value="" style="rounded=0;whiteSpace=wrap;html=1;fillColor=#d5e8d4;strokeColor=#82b366;" parent="1" vertex="1">
          <mxGeometry x="360" y="240" width="170" height="80" as="geometry" />
        </mxCell>
        <mxCell id="vOYcjfGLHSD7jjnJ-SRt-27" value="HTTP&lt;br&gt;Server" style="rounded=0;whiteSpace=wrap;html=1;fillColor=#cce5ff;strokeColor=#36393d;" parent="1" vertex="1">
          <mxGeometry x="447" y="247" width="76" height="33" as="geometry" />
        </mxCell>
        <mxCell id="vOYcjfGLHSD7jjnJ-SRt-30" value="Time Watcher" style="rounded=0;whiteSpace=wrap;html=1;fillColor=#f9f7ed;strokeColor=#36393d;" parent="1" vertex="1">
          <mxGeometry x="370" y="161" width="60" height="30" as="geometry" />
        </mxCell>
        <mxCell id="vOYcjfGLHSD7jjnJ-SRt-31" value="Training&lt;br&gt;(Parallelism)" style="rounded=0;whiteSpace=wrap;html=1;fillColor=#f9f7ed;strokeColor=#36393d;" parent="1" vertex="1">
          <mxGeometry x="439" y="153" width="70" height="38" as="geometry" />
        </mxCell>
        <mxCell id="vOYcjfGLHSD7jjnJ-SRt-33" value="" style="endArrow=none;startArrow=blockThin;html=1;rounded=0;entryX=0.847;entryY=1.002;entryDx=0;entryDy=0;endFill=0;startFill=1;exitX=0.678;exitY=-0.014;exitDx=0;exitDy=0;exitPerimeter=0;entryPerimeter=0;" parent="1" source="vOYcjfGLHSD7jjnJ-SRt-27" target="vOYcjfGLHSD7jjnJ-SRt-31" edge="1">
          <mxGeometry width="50" height="50" relative="1" as="geometry">
            <mxPoint x="497.998" y="247.00400000000002" as="sourcePoint" />
            <mxPoint x="498.5" y="190.27800000000002" as="targetPoint" />
          </mxGeometry>
        </mxCell>
        <mxCell id="neycpDrNxqpwpsXbRo6l-1" style="rounded=0;orthogonalLoop=1;jettySize=auto;html=1;exitX=0.133;exitY=0.945;exitDx=0;exitDy=0;entryX=0.145;entryY=0.855;entryDx=0;entryDy=0;entryPerimeter=0;endArrow=blockThin;endFill=1;exitPerimeter=0;" parent="1" edge="1">
          <mxGeometry relative="1" as="geometry">
            <mxPoint x="377.30999999999995" y="246.8" as="sourcePoint" />
            <mxPoint x="346.25" y="151.75" as="targetPoint" />
          </mxGeometry>
        </mxCell>
        <mxCell id="vOYcjfGLHSD7jjnJ-SRt-34" value="Invocation" style="rounded=0;whiteSpace=wrap;html=1;fillColor=#cce5ff;strokeColor=#36393d;" parent="1" vertex="1">
          <mxGeometry x="367.5" y="247" width="72.5" height="33" as="geometry" />
        </mxCell>
        <mxCell id="vOYcjfGLHSD7jjnJ-SRt-39" value="&lt;p style=&quot;line-height: 100%; font-size: 10px;&quot;&gt;&lt;font style=&quot;font-size: 10px;&quot;&gt;invoke&lt;br style=&quot;font-size: 10px;&quot;&gt;(again)&lt;/font&gt;&lt;/p&gt;" style="text;html=1;align=center;verticalAlign=middle;resizable=0;points=[];autosize=1;strokeColor=none;fillColor=none;rotation=0;fontSize=10;" parent="1" vertex="1">
          <mxGeometry x="302" y="171" width="50" height="50" as="geometry" />
        </mxCell>
        <mxCell id="vOYcjfGLHSD7jjnJ-SRt-40" value="HT-resolution" style="rounded=0;whiteSpace=wrap;html=1;fillColor=#cce5ff;strokeColor=#36393d;" parent="1" vertex="1">
          <mxGeometry x="367.5" y="284" width="72.5" height="30" as="geometry" />
        </mxCell>
        <mxCell id="vOYcjfGLHSD7jjnJ-SRt-41" value="Response" style="rounded=0;whiteSpace=wrap;html=1;fillColor=#fad9d5;strokeColor=#ae4132;" parent="1" vertex="1">
          <mxGeometry x="205" y="288" width="71" height="28" as="geometry" />
        </mxCell>
        <mxCell id="vOYcjfGLHSD7jjnJ-SRt-42" value="Lambda&lt;br&gt;Server" style="text;html=1;align=center;verticalAlign=middle;resizable=0;points=[];autosize=1;strokeColor=none;fillColor=none;" parent="1" vertex="1">
          <mxGeometry x="430" y="105" width="70" height="40" as="geometry" />
        </mxCell>
        <mxCell id="vOYcjfGLHSD7jjnJ-SRt-44" value="" style="endArrow=blockThin;html=1;rounded=0;exitX=0;exitY=0.5;exitDx=0;exitDy=0;entryX=0.999;entryY=0.374;entryDx=0;entryDy=0;endFill=1;entryPerimeter=0;" parent="1" source="vOYcjfGLHSD7jjnJ-SRt-40" target="vOYcjfGLHSD7jjnJ-SRt-41" edge="1">
          <mxGeometry width="50" height="50" relative="1" as="geometry">
            <mxPoint x="367.5" y="296" as="sourcePoint" />
            <mxPoint x="277" y="298.9999999999999" as="targetPoint" />
          </mxGeometry>
        </mxCell>
        <mxCell id="neycpDrNxqpwpsXbRo6l-3" value="" style="html=1;shape=mxgraph.basic.isocube;isoAngle=15;" parent="1" vertex="1">
          <mxGeometry x="230" y="205" width="20" height="20" as="geometry" />
        </mxCell>
        <mxCell id="neycpDrNxqpwpsXbRo6l-7" value="1" style="verticalLabelPosition=middle;verticalAlign=middle;html=1;shape=mxgraph.flowchart.on-page_reference;fillColor=#000000;labelPosition=center;align=center;fontColor=#FFFFFF;fontSize=10;" parent="1" vertex="1">
          <mxGeometry x="197" y="200" width="12" height="12" as="geometry" />
        </mxCell>
        <mxCell id="neycpDrNxqpwpsXbRo6l-8" value="2" style="verticalLabelPosition=middle;verticalAlign=middle;html=1;shape=mxgraph.flowchart.on-page_reference;fillColor=#000000;labelPosition=center;align=center;fontColor=#FFFFFF;fontSize=10;" parent="1" vertex="1">
          <mxGeometry x="293" y="235" width="12" height="12" as="geometry" />
        </mxCell>
        <mxCell id="neycpDrNxqpwpsXbRo6l-10" value="3" style="verticalLabelPosition=middle;verticalAlign=middle;html=1;shape=mxgraph.flowchart.on-page_reference;fillColor=#000000;labelPosition=center;align=center;fontColor=#FFFFFF;fontSize=10;" parent="1" vertex="1">
          <mxGeometry x="339" y="174" width="12" height="12" as="geometry" />
        </mxCell>
        <mxCell id="neycpDrNxqpwpsXbRo6l-11" value="&lt;p style=&quot;line-height: 100%;&quot;&gt;1&lt;/p&gt;" style="verticalLabelPosition=middle;verticalAlign=middle;html=1;shape=mxgraph.flowchart.on-page_reference;fillColor=#000000;labelPosition=center;align=center;fontColor=#FFFFFF;fontSize=10;" parent="1" vertex="1">
          <mxGeometry x="620" y="276" width="12" height="12" as="geometry" />
        </mxCell>
        <mxCell id="neycpDrNxqpwpsXbRo6l-12" value="1" style="verticalLabelPosition=middle;verticalAlign=middle;html=1;shape=mxgraph.flowchart.on-page_reference;fillColor=#000000;labelPosition=center;align=center;fontColor=#FFFFFF;fontSize=10;" parent="1" vertex="1">
          <mxGeometry x="630" y="286" width="12" height="12" as="geometry" />
        </mxCell>
        <mxCell id="neycpDrNxqpwpsXbRo6l-15" value="4" style="verticalLabelPosition=middle;verticalAlign=middle;html=1;shape=mxgraph.flowchart.on-page_reference;fillColor=#000000;labelPosition=center;align=center;fontColor=#FFFFFF;fontSize=10;" parent="1" vertex="1">
          <mxGeometry x="479" y="199" width="12" height="12" as="geometry" />
        </mxCell>
        <mxCell id="neycpDrNxqpwpsXbRo6l-16" value="6" style="verticalLabelPosition=middle;verticalAlign=middle;html=1;shape=mxgraph.flowchart.on-page_reference;fillColor=#000000;labelPosition=center;align=center;fontColor=#FFFFFF;fontSize=10;" parent="1" vertex="1">
          <mxGeometry x="409.75" y="194" width="12" height="12" as="geometry" />
        </mxCell>
        <mxCell id="neycpDrNxqpwpsXbRo6l-18" value="8" style="verticalLabelPosition=middle;verticalAlign=middle;html=1;shape=mxgraph.flowchart.on-page_reference;fillColor=#000000;labelPosition=center;align=center;fontColor=#FFFFFF;fontSize=10;" parent="1" vertex="1">
          <mxGeometry x="347" y="194" width="12" height="12" as="geometry" />
        </mxCell>
        <mxCell id="neycpDrNxqpwpsXbRo6l-20" value="9" style="verticalLabelPosition=middle;verticalAlign=middle;html=1;shape=mxgraph.flowchart.on-page_reference;fillColor=#000000;labelPosition=center;align=center;fontColor=#FFFFFF;fontSize=10;" parent="1" vertex="1">
          <mxGeometry x="315" y="302" width="12" height="12" as="geometry" />
        </mxCell>
        <mxCell id="neycpDrNxqpwpsXbRo6l-21" value="&lt;font style=&quot;font-size: 10px;&quot;&gt;module/data&lt;/font&gt;" style="text;html=1;align=center;verticalAlign=middle;resizable=0;points=[];autosize=1;strokeColor=none;fillColor=none;" parent="1" vertex="1">
          <mxGeometry x="257" y="136" width="80" height="30" as="geometry" />
        </mxCell>
        <mxCell id="PV-bu-QnKwdIhHbQrde8-4" value="" style="endArrow=blockThin;html=1;rounded=0;exitX=0.33;exitY=0.994;exitDx=0;exitDy=0;exitPerimeter=0;entryX=0.084;entryY=-0.019;entryDx=0;entryDy=0;entryPerimeter=0;endFill=1;startArrow=none;startFill=0;" parent="1" edge="1">
          <mxGeometry width="50" height="50" relative="1" as="geometry">
            <mxPoint x="391.79999999999995" y="190.82" as="sourcePoint" />
            <mxPoint x="455.384" y="246.373" as="targetPoint" />
          </mxGeometry>
        </mxCell>
        <mxCell id="PV-bu-QnKwdIhHbQrde8-5" value="PS" style="rounded=0;whiteSpace=wrap;html=1;fillColor=#cce5ff;strokeColor=#36393d;" parent="1" vertex="1">
          <mxGeometry x="447" y="284" width="76" height="30" as="geometry" />
        </mxCell>
        <mxCell id="PV-bu-QnKwdIhHbQrde8-6" value="&lt;font style=&quot;font-size: 10px;&quot;&gt;result&lt;/font&gt;" style="text;html=1;align=center;verticalAlign=middle;resizable=0;points=[];autosize=1;strokeColor=none;fillColor=none;" parent="1" vertex="1">
          <mxGeometry x="294" y="275" width="50" height="30" as="geometry" />
        </mxCell>
        <mxCell id="W96TtfsmjG_kAXLoIAcG-1" value="7" style="verticalLabelPosition=middle;verticalAlign=middle;html=1;shape=mxgraph.flowchart.on-page_reference;fillColor=#000000;labelPosition=center;align=center;fontColor=#FFFFFF;fontSize=10;" vertex="1" parent="1">
          <mxGeometry x="388" y="211" width="12" height="12" as="geometry" />
        </mxCell>
        <mxCell id="W96TtfsmjG_kAXLoIAcG-5" value="" style="endArrow=none;html=1;rounded=0;exitX=0.33;exitY=0.994;exitDx=0;exitDy=0;exitPerimeter=0;entryX=0.084;entryY=-0.019;entryDx=0;entryDy=0;entryPerimeter=0;endFill=0;startArrow=blockThin;startFill=1;" edge="1" parent="1">
          <mxGeometry width="50" height="50" relative="1" as="geometry">
            <mxPoint x="383.96" y="191.45" as="sourcePoint" />
            <mxPoint x="447.54400000000004" y="247.003" as="targetPoint" />
          </mxGeometry>
        </mxCell>
        <mxCell id="W96TtfsmjG_kAXLoIAcG-6" value="" style="endArrow=blockThin;startArrow=none;html=1;rounded=0;endFill=1;startFill=0;exitX=0.578;exitY=-0.002;exitDx=0;exitDy=0;exitPerimeter=0;" edge="1" parent="1">
          <mxGeometry width="50" height="50" relative="1" as="geometry">
            <mxPoint x="503.99800000000005" y="247.00400000000002" as="sourcePoint" />
            <mxPoint x="504" y="191.11" as="targetPoint" />
          </mxGeometry>
        </mxCell>
        <mxCell id="W96TtfsmjG_kAXLoIAcG-9" value="5" style="verticalLabelPosition=middle;verticalAlign=middle;html=1;shape=mxgraph.flowchart.on-page_reference;fillColor=#000000;labelPosition=center;align=center;fontColor=#FFFFFF;fontSize=10;" vertex="1" parent="1">
          <mxGeometry x="512" y="222" width="12" height="12" as="geometry" />
        </mxCell>
        <mxCell id="0ty1MtPIsn8DT-ruyWdK-20" value="" style="shape=note;whiteSpace=wrap;html=1;backgroundOutline=1;darkOpacity=0.05;size=9;" parent="1" vertex="1">
          <mxGeometry x="311.11529411764707" y="230" width="19.764705882352942" height="24" as="geometry" />
        </mxCell>
        <mxCell id="0ty1MtPIsn8DT-ruyWdK-18" value="" style="shape=note;whiteSpace=wrap;html=1;backgroundOutline=1;darkOpacity=0.05;size=9;" parent="1" vertex="1">
          <mxGeometry x="257" y="203" width="19.764705882352942" height="24" as="geometry" />
        </mxCell>
        <mxCell id="0ty1MtPIsn8DT-ruyWdK-19" value="" style="shape=note;whiteSpace=wrap;html=1;backgroundOutline=1;darkOpacity=0.05;size=9;" parent="1" vertex="1">
          <mxGeometry x="261.11764705882354" y="207" width="19.764705882352942" height="24" as="geometry" />
        </mxCell>
        <mxCell id="W96TtfsmjG_kAXLoIAcG-11" value="HTTP&lt;br&gt;Server" style="rounded=0;whiteSpace=wrap;html=1;fillColor=#cce5ff;strokeColor=#36393d;" vertex="1" parent="1">
          <mxGeometry x="324" y="490" width="76" height="33" as="geometry" />
        </mxCell>
        <mxCell id="W96TtfsmjG_kAXLoIAcG-12" value="Invocation" style="rounded=0;whiteSpace=wrap;html=1;fillColor=#cce5ff;strokeColor=#36393d;" vertex="1" parent="1">
          <mxGeometry x="457.5" y="567" width="72.5" height="33" as="geometry" />
        </mxCell>
        <mxCell id="W96TtfsmjG_kAXLoIAcG-13" value="HT-resolution" style="rounded=0;whiteSpace=wrap;html=1;fillColor=#cce5ff;strokeColor=#36393d;" vertex="1" parent="1">
          <mxGeometry x="315" y="660" width="72.5" height="30" as="geometry" />
        </mxCell>
        <mxCell id="W96TtfsmjG_kAXLoIAcG-14" value="PS/ESJ" style="rounded=0;whiteSpace=wrap;html=1;fillColor=#cce5ff;strokeColor=#36393d;" vertex="1" parent="1">
          <mxGeometry x="200.76" y="570" width="76" height="30" as="geometry" />
        </mxCell>
        <mxCell id="W96TtfsmjG_kAXLoIAcG-15" value="" style="endArrow=classic;html=1;rounded=0;" edge="1" parent="1">
          <mxGeometry width="50" height="50" relative="1" as="geometry">
            <mxPoint x="359" y="380" as="sourcePoint" />
            <mxPoint x="359" y="490" as="targetPoint" />
          </mxGeometry>
        </mxCell>
      </root>
    </mxGraphModel>
  </diagram>
</mxfile>
